HIERARCHY
ROOT Model
{
	OFFSET 0 0 0
	CHANNELS 6 Xposition Yposition Zposition Zrotation Xrotation Yrotation
	JOINT Model1
	{
		OFFSET 0 -2.25479 2.99384
		CHANNELS 3 Zrotation Xrotation Yrotation
		JOINT Model2
		{
			OFFSET 12.111 0 0
			CHANNELS 3 Zrotation Xrotation Yrotation
			JOINT Model3
			{
				OFFSET 11.5502 0 0
				CHANNELS 3 Zrotation Xrotation Yrotation
				JOINT Model4
				{
					OFFSET 11.781 0 0
					CHANNELS 3 Zrotation Xrotation Yrotation
					JOINT Model5
					{
						OFFSET 20.0601 0 0
						CHANNELS 3 Zrotation Xrotation Yrotation
						JOINT Model6
						{
							OFFSET 11.1962 0 0
							CHANNELS 3 Zrotation Xrotation Yrotation
							End Site
							{
								OFFSET 0 0 0
							}
						}
					}
					JOINT Model7
					{
						OFFSET 10.8223 0.417534 3.51114
						CHANNELS 3 Zrotation Xrotation Yrotation
						JOINT Model8
						{
							OFFSET -6.07944 0 0
							CHANNELS 3 Zrotation Xrotation Yrotation
							JOINT Model9
							{
								OFFSET -0.277405 10.39 -0.051239
								CHANNELS 3 Zrotation Xrotation Yrotation
								JOINT Model10
								{
									OFFSET -3.43909 -0.282043 1.86679
									CHANNELS 3 Zrotation Xrotation Yrotation
									JOINT Model11
									{
										OFFSET 13.0269 0 0
										CHANNELS 3 Zrotation Xrotation Yrotation
										JOINT Model12
										{
											OFFSET 10.8866 0 0
											CHANNELS 3 Zrotation Xrotation Yrotation
											JOINT Model13
											{
												OFFSET 16.7317 0 0
												CHANNELS 3 Zrotation Xrotation Yrotation
												JOINT Model14
												{
													OFFSET 11.8292 0 0
													CHANNELS 3 Zrotation Xrotation Yrotation
													JOINT Model15
													{
														OFFSET 4.82751 -3.73566 -0.836517
														CHANNELS 3 Zrotation Xrotation Yrotation
														JOINT Model16
														{
															OFFSET 3.75311 -0.0582886 -0.0186462
															CHANNELS 3 Zrotation Xrotation Yrotation
															JOINT Model17
															{
																OFFSET 2.88689 0.0192337 0.014801
																CHANNELS 3 Zrotation Xrotation Yrotation
																End Site
																{
																	OFFSET 0 0 0
																}
															}
														}
													}
													JOINT Model18
													{
														OFFSET 9.72197 -3.06458 0.23877
														CHANNELS 3 Zrotation Xrotation Yrotation
														JOINT Model19
														{
															OFFSET 4.61131 0 0
															CHANNELS 3 Zrotation Xrotation Yrotation
															JOINT Model20
															{
																OFFSET 2.8969 -7.62939e-006 0
																CHANNELS 3 Zrotation Xrotation Yrotation
																End Site
																{
																	OFFSET 0 0 0
																}
															}
														}
													}
													JOINT Model21
													{
														OFFSET 9.54431 -0.745064 0.588928
														CHANNELS 3 Zrotation Xrotation Yrotation
														JOINT Model22
														{
															OFFSET 5.33978 0 0
															CHANNELS 3 Zrotation Xrotation Yrotation
															JOINT Model23
															{
																OFFSET 3.03619 7.62939e-006 0
																CHANNELS 3 Zrotation Xrotation Yrotation
																End Site
																{
																	OFFSET 0 0 0
																}
															}
														}
													}
													JOINT Model24
													{
														OFFSET 9.47758 1.51286 0.485107
														CHANNELS 3 Zrotation Xrotation Yrotation
														JOINT Model25
														{
															OFFSET 4.96136 7.62939e-006 0
															CHANNELS 3 Zrotation Xrotation Yrotation
															JOINT Model26
															{
																OFFSET 2.51965 0 0
																CHANNELS 3 Zrotation Xrotation Yrotation
																End Site
																{
																	OFFSET 0 0 0
																}
															}
														}
													}
													JOINT Model27
													{
														OFFSET 9.34247 3.34117 -0.239288
														CHANNELS 3 Zrotation Xrotation Yrotation
														JOINT Model28
														{
															OFFSET 3.28259 2.28882e-005 0
															CHANNELS 3 Zrotation Xrotation Yrotation
															JOINT Model29
															{
																OFFSET 2.1292 0 0
																CHANNELS 3 Zrotation Xrotation Yrotation
																End Site
																{
																	OFFSET 0 0 0
																}
															}
														}
													}
												}
											}
										}
									}
								}
							}
						}
					}
					JOINT Model30
					{
						OFFSET 10.8223 0.4179 -3.51108
						CHANNELS 3 Zrotation Xrotation Yrotation
						JOINT Model31
						{
							OFFSET 6.07944 0 0
							CHANNELS 3 Zrotation Xrotation Yrotation
							JOINT Model32
							{
								OFFSET 0.277405 -10.39 0.051239
								CHANNELS 3 Zrotation Xrotation Yrotation
								JOINT Model33
								{
									OFFSET 3.43909 0.282043 -1.86679
									CHANNELS 3 Zrotation Xrotation Yrotation
									JOINT Model34
									{
										OFFSET -13.0269 0 0
										CHANNELS 3 Zrotation Xrotation Yrotation
										JOINT Model35
										{
											OFFSET -10.8866 0 0
											CHANNELS 3 Zrotation Xrotation Yrotation
											JOINT Model36
											{
												OFFSET -16.7317 0 0
												CHANNELS 3 Zrotation Xrotation Yrotation
												JOINT Model37
												{
													OFFSET -11.8292 0 0
													CHANNELS 3 Zrotation Xrotation Yrotation
													JOINT Model38
													{
														OFFSET -4.82751 3.73566 0.836517
														CHANNELS 3 Zrotation Xrotation Yrotation
														JOINT Model39
														{
															OFFSET -3.75311 0.0582886 0.0186462
															CHANNELS 3 Zrotation Xrotation Yrotation
															JOINT Model40
															{
																OFFSET -2.88687 -0.0192337 -0.014801
																CHANNELS 3 Zrotation Xrotation Yrotation
																End Site
																{
																	OFFSET 0 0 0
																}
															}
														}
													}
													JOINT Model41
													{
														OFFSET -9.72198 3.06459 -0.23877
														CHANNELS 3 Zrotation Xrotation Yrotation
														JOINT Model42
														{
															OFFSET -4.6113 0 0
															CHANNELS 3 Zrotation Xrotation Yrotation
															JOINT Model43
															{
																OFFSET -2.89691 0 0
																CHANNELS 3 Zrotation Xrotation Yrotation
																End Site
																{
																	OFFSET 0 0 0
																}
															}
														}
													}
													JOINT Model44
													{
														OFFSET -9.54431 0.745064 -0.588928
														CHANNELS 3 Zrotation Xrotation Yrotation
														JOINT Model45
														{
															OFFSET -5.33978 0 0
															CHANNELS 3 Zrotation Xrotation Yrotation
															JOINT Model46
															{
																OFFSET -3.03619 -1.52588e-005 0
																CHANNELS 3 Zrotation Xrotation Yrotation
																End Site
																{
																	OFFSET 0 0 0
																}
															}
														}
													}
													JOINT Model47
													{
														OFFSET -9.4776 -1.51286 -0.485107
														CHANNELS 3 Zrotation Xrotation Yrotation
														JOINT Model48
														{
															OFFSET -4.96136 -1.52588e-005 0
															CHANNELS 3 Zrotation Xrotation Yrotation
															JOINT Model49
															{
																OFFSET -2.51965 0 0
																CHANNELS 3 Zrotation Xrotation Yrotation
																End Site
																{
																	OFFSET 0 0 0
																}
															}
														}
													}
													JOINT Model50
													{
														OFFSET -9.34247 -3.34118 0.239288
														CHANNELS 3 Zrotation Xrotation Yrotation
														JOINT Model51
														{
															OFFSET -3.28259 -2.28882e-005 0
															CHANNELS 3 Zrotation Xrotation Yrotation
															JOINT Model52
															{
																OFFSET -2.12921 0 0
																CHANNELS 3 Zrotation Xrotation Yrotation
																End Site
																{
																	OFFSET 0 0 0
																}
															}
														}
													}
												}
											}
										}
									}
								}
							}
						}
					}
				}
			}
		}
	}
	JOINT Model53
	{
		OFFSET 4.38025 -2.14632 -1.11517
		CHANNELS 3 Zrotation Xrotation Yrotation
		JOINT Model54
		{
			OFFSET 0 0 4.94998
			CHANNELS 3 Zrotation Xrotation Yrotation
			JOINT Model55
			{
				OFFSET 18.5642 0 0
				CHANNELS 3 Zrotation Xrotation Yrotation
				JOINT Model56
				{
					OFFSET 21.2884 0 0
					CHANNELS 3 Zrotation Xrotation Yrotation
					JOINT Model57
					{
						OFFSET 30.261 0 0
						CHANNELS 3 Zrotation Xrotation Yrotation
						JOINT Model58
						{
							OFFSET 11.7259 0 0
							CHANNELS 3 Zrotation Xrotation Yrotation
							JOINT Model59
							{
								OFFSET 10.682 0 0
								CHANNELS 3 Zrotation Xrotation Yrotation
								End Site
								{
									OFFSET 0 0 0
								}
							}
						}
					}
				}
			}
		}
	}
	JOINT Model60
	{
		OFFSET -4.38025 -2.14632 -1.11517
		CHANNELS 3 Zrotation Xrotation Yrotation
		JOINT Model61
		{
			OFFSET 0 0 -4.94998
			CHANNELS 3 Zrotation Xrotation Yrotation
			JOINT Model62
			{
				OFFSET -18.5642 0 0
				CHANNELS 3 Zrotation Xrotation Yrotation
				JOINT Model63
				{
					OFFSET -21.2884 0 0
					CHANNELS 3 Zrotation Xrotation Yrotation
					JOINT Model64
					{
						OFFSET -30.261 0 0
						CHANNELS 3 Zrotation Xrotation Yrotation
						JOINT Model65
						{
							OFFSET -11.7259 0 0
							CHANNELS 3 Zrotation Xrotation Yrotation
							JOINT Model66
							{
								OFFSET -10.682 0 0
								CHANNELS 3 Zrotation Xrotation Yrotation
								End Site
								{
									OFFSET 0 0 0
								}
							}
						}
					}
				}
			}
		}
	}
}
MOTION
Frames: 4
Frame Time: 0.033333
-295.173 332.424 -292.424 -95.9909 54.3438 -81.3247 -180 4.29621e-031 -90 2.3081 -1.42954 -2.34557 4.55795 -2.95165 -4.63394 4.55795 -2.95122 -4.63397 -10.1652 -15.7736 13.9327 -15.2369 -9.8449 -6.71454 120.092 75.5343 58.4939 18.6883 22.0906 0.337781 -167.277 84.4999 48.8109 134.099 -8.89064 32.2882 3.70428e-006 11.0892 2.94454e-005 -87.5451 44.4616 0.852172 -1.4831e-006 66.2289 3.02354e-006 4.66414 -0.618644 -15.103 -72.0648 39.0385 39.3397 33.3638 2.10362 14.835 0.588947 0.308273 6.35287 -99.6409 81.413 100.35 -0.0181409 2.779e-005 -0.117315 -0.124139 0.00241113 -0.799296 -79.8382 79.5773 80.5374 -0.000225779 -0.000220912 2.22117e-005 -0.000956229 0.000122909 -2.72973e-005 -66.7416 80.4058 67.2171 -0.000437134 1.59566e-005 -2.73034e-005 -0.000136606 -0.000109276 -5.46181e-005 -6.42159 81.2158 8.01779 -0.000218567 1.69147e-005 0.000212157 0.000901583 -0.000184793 -0.000218544 -59.9282 75.5373 58.5147 35.1264 -3.76439 -5.36053 -167.277 84.4999 48.8109 138.805 -13.8004 -45.817 9.87073e-006 -5.71322 2.9243e-005 -28.5382 6.32883 0.293015 -4.96665e-006 9.02131 2.12685e-006 9.0302 -1.30925 -16.4663 -72.0648 39.0385 39.3397 33.3638 2.10361 14.835 0.588946 0.308273 6.35287 -99.6409 81.413 100.35 -0.0181409 3.00782e-005 -0.117315 -0.124139 0.00241113 -0.799296 -79.8382 79.5773 80.5374 -0.000260648 -0.000218565 2.35403e-005 -0.000956228 0.000122998 -2.73615e-005 -66.7416 80.4058 67.2171 -0.000437135 1.48814e-005 -2.73508e-005 -0.000136607 -0.000109283 -5.46822e-005 -6.42159 81.2158 8.01779 -0.000218571 1.9575e-005 0.000212267 0.000901576 -0.00019125 -0.000218606 0.000811311 0.56661 89.91 -87.2153 -4.69377 -11.4947 8.21687e-007 -10.9837 -1.12176e-008 100.509 7.40845 -0.00821115 -5.43235e-008 10.9926 -5.52246e-008 -54.8815 15.0488 -11.0223 -35.4947 -1.25482e-005 5.21969e-006 -180 -0.566579 -90.09 -32.6208 -3.76361 -1.6535 -5.24205e-007 -4.92844 -1.40285e-008 36.2484 -11.7357 -1.84981 4.59567e-008 -17.6817 -6.01376e-007 -61.4365 10.7674 -7.35425 -35.4947 -6.27164e-007 -3.21499e-006 
-295.099 332.406 -292.423 -95.8991 54.34 -81.3512 -180 4.29621e-031 -90 2.30161 -1.43922 -2.35517 4.54434 -2.97111 -4.65295 4.54434 -2.97067 -4.65298 -10.0312 -15.8251 14.2989 -15.3456 -9.71891 -7.09186 120.092 75.5343 58.4939 18.8039 21.803 0.257705 -167.277 84.4999 48.8109 133.899 -8.96635 32.4114 3.7198e-006 11.0596 2.94424e-005 -87.3505 44.6303 0.854561 -1.51623e-006 66.4795 3.05388e-006 4.83957 -0.652417 -15.3465 -72.0648 39.0385 39.3397 33.3638 2.10362 14.835 0.588947 0.308273 6.35287 -99.6409 81.413 100.35 -0.0181409 2.779e-005 -0.117315 -0.124139 0.00241113 -0.799296 -79.8382 79.5773 80.5374 -0.000225779 -0.000220912 2.22117e-005 -0.000956229 0.000122909 -2.72973e-005 -66.7416 80.4058 67.2171 -0.000437134 1.59566e-005 -2.73034e-005 -0.000136606 -0.000109276 -5.46181e-005 -6.42159 81.2158 8.01779 -0.000218567 1.69147e-005 0.000212157 0.000901583 -0.000184793 -0.000218544 -59.9282 75.5373 58.5147 35.1926 -3.36848 -5.36805 -167.277 84.4999 48.8109 139.05 -13.8614 -45.834 9.8272e-006 -5.62835 2.92387e-005 -28.0167 6.49326 0.288172 -4.97619e-006 9.27505 2.12836e-006 8.97594 -1.33806 -16.9241 -72.0648 39.0385 39.3397 33.3638 2.10361 14.835 0.588946 0.308273 6.35287 -99.6409 81.413 100.35 -0.0181409 3.00782e-005 -0.117315 -0.124139 0.00241113 -0.799296 -79.8382 79.5773 80.5374 -0.000260648 -0.000218565 2.35403e-005 -0.000956228 0.000122998 -2.73615e-005 -66.7416 80.4058 67.2171 -0.000437135 1.48814e-005 -2.73508e-005 -0.000136607 -0.000109283 -5.46822e-005 -6.42159 81.2158 8.01779 -0.000218571 1.9575e-005 0.000212267 0.000901576 -0.00019125 -0.000218606 0.000811311 0.56661 89.91 -87.2914 -4.68285 -11.4608 8.2169e-007 -10.9673 -1.12169e-008 100.457 7.27555 -0.00818137 -5.45192e-008 10.7932 -5.51876e-008 -54.9892 15.1469 -11.0751 -35.4947 -1.24868e-005 5.19286e-006 -180 -0.566579 -90.09 -32.6802 -3.72072 -1.52108 -5.24201e-007 -4.91463 -1.40282e-008 36.2041 -11.7711 -1.86832 4.53713e-008 -17.7348 -6.01554e-007 -61.4317 10.8069 -7.37932 -35.4947 -7.77366e-007 -3.18048e-006 
-294.995 332.361 -292.374 -96.0933 54.3773 -81.1607 -180 4.29621e-031 -90 2.32551 -1.44327 -2.36943 4.59162 -2.98073 -4.68068 4.59162 -2.9803 -4.68072 -9.80232 -15.7522 14.6037 -15.4239 -9.51139 -7.42768 120.092 75.5343 58.4939 18.561 21.5431 0.304939 -167.277 84.4999 48.8109 133.852 -8.94898 32.2079 3.71755e-006 11.0639 2.94429e-005 -87.208 44.9394 0.859031 -1.57904e-006 66.9411 3.11158e-006 5.16195 -0.713217 -15.723 -72.0648 39.0385 39.3397 33.3638 2.10362 14.835 0.588947 0.308273 6.35287 -99.6409 81.413 100.35 -0.0181409 2.779e-005 -0.117315 -0.124139 0.00241113 -0.799296 -79.8382 79.5773 80.5374 -0.000225779 -0.000220912 2.22117e-005 -0.000956229 0.000122909 -2.72973e-005 -66.7416 80.4058 67.2171 -0.000437134 1.59566e-005 -2.73034e-005 -0.000136606 -0.000109276 -5.46181e-005 -6.42159 81.2158 8.01779 -0.000218567 1.69147e-005 0.000212157 0.000901583 -0.000184793 -0.000218544 -59.9282 75.5373 58.5147 35.3099 -2.76815 -5.38254 -167.277 84.4999 48.8109 139.346 -13.9658 -45.8763 9.79712e-006 -5.56969 2.92357e-005 -27.6185 6.46324 0.284356 -4.9747e-006 9.23548 2.12813e-006 8.96496 -1.36038 -17.2232 -72.0648 39.0385 39.3397 33.3638 2.10361 14.835 0.588946 0.308273 6.35287 -99.6409 81.413 100.35 -0.0181409 3.00782e-005 -0.117315 -0.124139 0.00241113 -0.799296 -79.8382 79.5773 80.5374 -0.000260648 -0.000218565 2.35403e-005 -0.000956228 0.000122998 -2.73615e-005 -66.7416 80.4058 67.2171 -0.000437135 1.48814e-005 -2.73508e-005 -0.000136607 -0.000109283 -5.46822e-005 -6.42159 81.2158 8.01779 -0.000218571 1.9575e-005 0.000212267 0.000901576 -0.00019125 -0.000218606 0.000811311 0.56661 89.91 -87.2395 -4.65756 -11.48 8.21698e-007 -10.9282 -1.12155e-008 100.402 7.12842 -0.00815016 -5.47354e-008 10.5725 -5.51475e-008 -55.1938 15.2662 -11.1274 -35.4947 -1.24238e-005 5.16542e-006 -180 -0.566579 -90.09 -32.6375 -3.71215 -1.38978 -5.2421e-007 -4.94981 -1.40289e-008 36.155 -11.7212 -1.88021 4.6196e-008 -17.66 -6.01303e-007 -61.4696 11.0639 -7.53602 -35.4947 -9.28224e-007 -3.14528e-006 
-294.838 332.295 -292.281 -96.5592 54.594 -80.6914 -180 4.29621e-031 -90 2.37432 -1.41122 -2.37136 4.69042 -2.91873 -4.68445 4.69041 -2.9183 -4.68449 -9.68188 -15.5818 14.6509 -14.835 -9.41741 -7.25501 120.092 75.5343 58.4939 18.111 21.5287 0.457325 -167.277 84.4999 48.8109 133.96 -8.79557 31.6605 3.66371e-006 11.1667 2.94532e-005 -87.1677 44.7812 0.856538 -1.54638e-006 66.7032 3.08156e-006 5.16386 -0.719453 -15.853 -72.0648 39.0385 39.3397 33.3638 2.10362 14.835 0.588947 0.308273 6.35287 -99.6409 81.413 100.35 -0.0181409 2.779e-005 -0.117315 -0.124139 0.00241113 -0.799296 -79.8382 79.5773 80.5374 -0.000225779 -0.000220912 2.22117e-005 -0.000956229 0.000122909 -2.72973e-005 -66.7416 80.4058 67.2171 -0.000437134 1.59566e-005 -2.73034e-005 -0.000136606 -0.000109276 -5.46181e-005 -6.42159 81.2158 8.01779 -0.000218567 1.69147e-005 0.000212157 0.000901583 -0.000184793 -0.000218544 -59.9282 75.5373 58.5147 35.5592 -1.8791 -5.41682 -167.277 84.4999 48.8109 140.293 -14.6027 -45.6835 9.90327e-006 -5.77666 2.92462e-005 -28.6247 6.20018 0.293787 -4.95936e-006 8.82717 2.12572e-006 9.34513 -1.39895 -16.9914 -72.0648 39.0385 39.3397 33.3638 2.10361 14.835 0.588946 0.308273 6.35287 -99.6409 81.413 100.35 -0.0181409 3.00782e-005 -0.117315 -0.124139 0.00241113 -0.799296 -79.8382 79.5773 80.5374 -0.000260648 -0.000218565 2.35403e-005 -0.000956228 0.000122998 -2.73615e-005 -66.7416 80.4058 67.2171 -0.000437135 1.48814e-005 -2.73508e-005 -0.000136607 -0.000109283 -5.46822e-005 -6.42159 81.2158 8.01779 -0.000218571 1.9575e-005 0.000212267 0.000901576 -0.00019125 -0.000218606 0.000811311 0.56661 89.91 -87.1108 -4.53512 -11.7505 8.21719e-007 -10.8212 -1.12114e-008 100.401 7.07769 -0.00811957 -5.48099e-008 10.4964 -5.51339e-008 -55.5592 15.1509 -10.9884 -35.4947 -1.23592e-005 5.13737e-006 -180 -0.566579 -90.09 -32.4812 -3.59998 -1.05546 -5.24199e-007 -4.90378 -1.4028e-008 36.0202 -11.6701 -1.88593 4.70422e-008 -17.5831 -6.01047e-007 -61.4779 11.3583 -7.7188 -35.4947 -1.07968e-006 -3.10942e-006 
